<svg width="149" height="37" viewBox="0 0 149 37" fill="none" xmlns="http://www.w3.org/2000/svg">
<path d="M39.1933 35.4588L39.2838 34.2499C41.0444 34.119 39.8196 35.6401 41.4411 35.2573C42.0465 33.4541 44.1482 35.2573 44.6979 34.3104C44.6979 34.4514 45.4843 34.4514 45.4425 35.0054C45.6722 33.9981 46.2567 34.7335 46.7578 34.4615C46.9318 34.1895 46.6186 34.1794 46.4794 33.9074L47.6277 33.5146C48.08 33.7966 48.1983 34.3607 47.7112 34.5219C49.2213 34.6428 53.5846 34.7234 57.9827 34.8141C60.1818 34.8141 62.3878 34.8745 64.2459 34.8141C66.1039 34.7536 67.614 34.8141 68.4213 34.6227C68.0037 33.9074 67.0295 34.401 66.6189 33.2728C67.4749 32.618 67.8854 33.4743 68.2543 32.7994C68.5953 34.4917 70.1471 33.1922 70.8013 34.8946L71.0448 33.9377L71.4693 34.5219C75.2411 33.5146 72.3323 33.9981 75.6448 34.2298C77.5794 34.0988 78.498 32.7691 79.5766 33.2224C79.4166 33.2224 78.9921 32.618 79.4931 32.3763C79.5766 33.2224 80.8293 31.7819 81.0728 32.6382C81.5669 32.5274 83.1605 32.6382 82.6177 31.4898C82.8891 32.064 84.3088 32.3259 83.4598 32.8094C83.8832 32.9525 84.3237 32.9525 84.7472 32.8094L84.1348 32.4669C85.7563 32.336 86.6331 33.2527 87.6909 32.2252L87.0924 31.7618C88.0597 31.7013 88.8739 31.6409 89.2427 32.7691L88.2476 33.0915C89.5684 33.1946 90.8919 32.9836 92.1655 32.4669H91.6854C92.5413 31.9028 95.1997 31.4596 97.8441 31.0365C100.489 30.6134 103.126 30.0996 103.919 29.4348L103.223 28.5181L104.615 27.8432C104.455 27.8432 103.919 30.6839 103.794 30.3817C106.689 30.3817 121.769 30.6839 124.421 31.6107C125.492 32.1949 124.581 33.031 124.567 33.1721C125.889 32.9605 125.158 32.2856 126.272 32.4569C126.571 32.6382 126.188 33.1418 126.014 33.2527C126.508 33.1922 126.954 33.5347 127.002 33.1318C126.397 32.7591 126.682 31.6812 126.439 30.9458L127.872 31.1674L127.796 31.8524C128.116 31.9028 128.652 30.0191 130.057 30.5328C132.424 31.0768 135.019 31.0969 137.406 31.5402C137.358 31.9532 136.843 32.1446 136.335 32.336C136.714 32.3063 137.092 32.4172 137.434 32.6583C136.877 31.8726 138.45 32.2755 138.012 31.923C139.814 30.4119 142.034 32.2453 143.614 31.2782C143.788 29.7672 147.831 5.54043 147.907 3.73727C148.289 3.76219 148.665 3.8779 149.021 4.07977C148.91 3.64661 147.963 3.32426 147.441 3.50558L147.323 4.51293C146.14 4.70433 147.065 3.89845 145.931 3.82793C145.931 3.03213 146.954 2.98176 147.887 3.02205C147.051 2.83066 146.244 2.14566 145.875 3.02205C145.103 2.59897 145.994 2.0147 145.061 1.61176C144.365 1.76286 143.468 2.42772 142.716 1.87367V1.73264C140.865 0.725293 139.807 2.57882 138.116 1.60169L138.311 1.35992C137.712 0.836101 136.502 1.35992 135.423 0.725293C135.729 0.916689 135.987 1.5211 135.326 1.55132C134.08 0.916689 133.238 1.3297 132.305 0.614484L131.401 1.29948C130.308 1.13831 128.401 1.03757 126.091 0.916689C123.78 0.795807 121.087 0.493602 118.338 0.463381L110.593 0.332426H105.269L105.443 0.211544L91.8106 0.0705146C89.2358 0.0705146 86.654 0.151103 84.2809 0.251838C81.9079 0.352573 79.7506 0.564117 78.0178 0.815954C76.9461 0.0503676 75.4638 0.221617 74.3434 0C74.9697 0.322352 74.754 0.866322 74.2669 0.836101C70.8639 0.77566 74.0372 1.35992 70.5925 1.73264C69.5904 1.91397 67.9133 2.0147 65.8743 2.0147C63.8353 2.0147 61.4622 2.08522 59.0962 2.0147L52.3946 1.85353C50.4113 1.78301 48.7968 1.68228 47.92 1.56139C46.041 2.75007 43.668 2.06507 41.8238 2.88102L42.0117 2.60904C40.0284 3.10264 28.7478 2.88102 26.4444 3.50558L26.7575 3.64661C24.7603 4.53308 25.0038 3.27389 23.4102 3.03213C23.6468 4.28124 21.9419 5.15764 21.2877 5.31881V5.03676C20.3134 5.40948 18.0935 6.70896 16.4651 7.05146L16.5138 6.34631C15.1637 7.24285 12.5889 7.21263 11.6425 7.35366C9.38774 7.28315 5.88735 6.53771 2.91584 7.81704L0.876839 6.15491L0.598477 6.38661C0.239991 10.5885 0.0402013 14.8156 0 19.049C0 25.6774 0.445378 32.8598 2.49134 35.1666L2.45654 35.8617L3.22899 35.6703C4.16847 35.902 4.56513 35.0457 4.53034 35.7408L3.25683 35.8214C4.18934 35.902 3.55607 36.3452 3.21508 36.8288C3.58309 36.8234 3.9494 36.9016 4.30069 37.0604C4.47466 36.7683 4.15455 36.7885 4.00841 36.6575C4.5025 36.3553 5.17753 35.6502 5.79688 35.8617C6.75027 35.8013 5.89431 36.9698 7.00775 36.869C9.95143 36.7482 12.8533 36.7985 15.7553 36.728C18.6572 36.6575 21.5661 36.5467 24.5306 36.1941C24.6698 36.4661 24.5306 36.4661 24.3427 36.6172C26.1242 36.1538 27.7109 36.0934 29.3324 35.6703C29.6501 35.8713 29.9089 36.228 30.0631 36.6777C29.9239 36.4057 32.1508 36.0732 34.4681 35.8315C35.6164 35.7106 36.7785 35.6099 37.6623 35.5494C38.5461 35.489 39.1516 35.5494 39.1933 35.5494" fill="#B21D1E"/>
</svg>
