<svg width="192" height="32" viewBox="0 0 192 32" fill="none" xmlns="http://www.w3.org/2000/svg">
<path d="M34.8934 30.0036C34.8934 30.9882 34.0859 31.6253 32.6441 31.6253H30.7408V25.7754H32.5864C33.9706 25.7754 34.6627 26.2967 34.6627 27.2234C34.6627 27.8605 34.259 28.3239 33.5669 28.5556C34.3743 28.6714 34.8934 29.3085 34.8934 30.0036ZM31.4329 26.3546V28.3239H32.471C33.5092 28.3239 33.9706 27.8605 33.9706 27.2813C33.9706 26.7021 33.5092 26.3546 32.5864 26.3546H31.4329ZM34.1436 29.9456C34.1436 29.3085 33.5669 28.9031 32.471 28.9031H31.3752V30.9882H32.5864C33.6822 30.9882 34.1436 30.5248 34.1436 29.9456Z" fill="white"/>
<path d="M40.8339 25.7175V31.5674H40.1418V25.7175H40.8339Z" fill="white"/>
<path d="M49.8312 26.0071L49.6005 26.5863C49.1391 26.3546 48.5623 26.2388 48.1009 26.2388C47.3512 26.2388 46.8898 26.5284 46.8898 27.1076C46.8898 27.6868 47.1781 27.9764 48.2163 28.266C49.6005 28.6714 50.1196 29.1927 50.1196 30.0036C50.1196 30.9882 49.3698 31.6253 48.0433 31.6253C47.4088 31.6253 46.6591 31.5095 45.9669 31.2199L46.1977 30.6407C46.7744 30.8723 47.4665 30.9882 48.0433 30.9882C48.8507 30.9882 49.3698 30.5827 49.3698 30.0036C49.3698 29.5402 49.0237 29.1927 47.9279 28.8452C46.6591 28.4976 46.14 28.0343 46.14 27.1655C46.14 26.1808 46.8898 25.6017 48.0433 25.6017C48.6777 25.6596 49.3121 25.7754 49.8312 26.0071Z" fill="white"/>
<path d="M54.6759 26.3546V25.7175H59.1745V26.3546H57.2713V31.5674H56.5792V26.3546H54.6759Z" fill="white"/>
<path d="M68.4025 31.5674L67.5951 31.6253C67.4221 31.3936 67.249 31.104 67.1337 30.7565L66.7876 29.9456C66.4993 29.3664 66.2109 29.1927 65.8072 29.1927H64.8267V31.6253H64.1346V25.7754H65.8648C67.3067 25.7754 68.1142 26.4125 68.1142 27.4551C68.1142 28.208 67.5374 28.7293 66.7876 28.961V29.0189C66.9607 29.1348 67.249 29.3664 67.4797 29.8877L67.8258 30.6407C67.9988 30.9303 68.1718 31.2199 68.4025 31.5674ZM67.4221 27.3972C67.4221 26.7601 66.903 26.3546 65.8648 26.3546H64.8267V28.5556H65.7495C66.7876 28.5556 67.4221 28.0922 67.4221 27.3972Z" fill="white"/>
<path d="M78.611 28.6714C78.611 30.5248 77.3422 31.6832 75.8426 31.6832C74.3431 31.6832 73.0742 30.5248 73.0742 28.6714C73.0742 26.818 74.3431 25.6596 75.8426 25.6596C77.3422 25.6596 78.611 26.818 78.611 28.6714ZM77.9189 28.6714C77.9189 27.1655 76.9961 26.2967 75.8426 26.2967C74.6891 26.2967 73.7663 27.1655 73.7663 28.6714C73.7663 30.1773 74.6891 31.0461 75.8426 31.0461C76.9961 31.0461 77.9189 30.1773 77.9189 28.6714Z" fill="white"/>
<path d="M94.414 31.6832C94.0102 31.6832 93.6065 31.5095 93.0874 31.104C92.626 31.5095 92.0493 31.6832 91.4149 31.6832C90.319 31.6832 89.5116 30.9882 89.5116 29.9456C89.5116 29.2506 89.9153 28.7293 90.7228 28.3818C90.4344 27.9184 90.319 27.513 90.319 27.1076C90.319 26.2388 90.9535 25.6596 91.7609 25.6596C92.5684 25.6596 93.1451 26.1229 93.1451 26.9338C93.1451 27.5709 92.6837 28.266 91.7032 28.6714C91.8763 28.9031 92.0493 29.0768 92.2223 29.3085C92.5684 29.714 92.8567 30.0035 93.0874 30.2352C93.4335 29.8877 93.7795 29.4244 94.0679 28.961L94.587 29.3085C94.2986 29.7719 93.9526 30.2352 93.5488 30.5827C93.8949 30.8723 94.1833 30.9882 94.414 30.9882C94.6447 30.9882 94.8177 30.9303 94.9907 30.8723L95.106 31.3936C94.9907 31.6253 94.6447 31.6832 94.414 31.6832ZM92.626 30.6986C92.3953 30.4669 92.107 30.1194 91.7609 29.7719C91.4725 29.4823 91.2418 29.1348 91.0688 28.9031C90.4921 29.0768 90.2614 29.4244 90.2614 29.9456C90.2614 30.6986 90.7228 31.104 91.4725 31.104C91.9339 31.0461 92.3377 30.9303 92.626 30.6986ZM91.0688 27.0496C91.0688 27.3392 91.1842 27.6868 91.4725 28.1501C92.28 27.8605 92.5107 27.3972 92.5107 26.9338C92.5107 26.4705 92.2223 26.2388 91.8186 26.2388C91.3572 26.2388 91.0688 26.5284 91.0688 27.0496Z" fill="white"/>
<path d="M109.929 25.7175V26.3546H106.987V28.2659H109.582V28.903H106.987V30.9882H110.044V31.6253H106.295V25.7754H109.929V25.7175Z" fill="white"/>
<path d="M115.927 25.7175V31.5674H115.235V25.7175H115.927Z" fill="white"/>
<path d="M124.924 26.0071L124.693 26.5863C124.232 26.3546 123.655 26.2388 123.194 26.2388C122.444 26.2388 121.983 26.5284 121.983 27.1076C121.983 27.6868 122.271 27.9764 123.309 28.266C124.693 28.6714 125.212 29.1927 125.212 30.0036C125.212 30.9882 124.463 31.6253 123.136 31.6253C122.502 31.6253 121.752 31.5095 121.06 31.2199L121.291 30.6407C121.867 30.8723 122.559 30.9882 123.136 30.9882C123.944 30.9882 124.463 30.5827 124.463 30.0036C124.463 29.5402 124.117 29.1927 123.021 28.8452C121.752 28.4976 121.233 28.0343 121.233 27.1655C121.233 26.1808 121.983 25.6017 123.136 25.6017C123.828 25.6596 124.405 25.7754 124.924 26.0071Z" fill="white"/>
<path d="M134.613 26.0071L134.383 26.5863C133.979 26.4125 133.46 26.2967 132.883 26.2967C131.672 26.2967 130.749 27.1655 130.749 28.6714C130.749 30.1773 131.73 31.0461 132.883 31.0461C133.46 31.0461 133.979 30.9303 134.383 30.7565L134.613 31.3357C134.094 31.5674 133.518 31.7411 132.825 31.7411C131.326 31.7411 129.999 30.5827 129.999 28.7293C129.999 26.8759 131.326 25.7175 132.825 25.7175C133.575 25.6596 134.152 25.7754 134.613 26.0071Z" fill="white"/>
<path d="M142.803 30.2931H140.266L139.804 31.6253H139.112L141.246 25.7175H141.823L143.957 31.6253H143.265L142.803 30.2931ZM141.073 27.9763L140.439 29.7139H142.573L141.938 27.9763L141.477 26.5863L141.073 27.9763Z" fill="white"/>
<path d="M152.32 25.7175V26.3546H149.551V28.3818H152.031V29.0189H149.551V31.5674H148.859V25.7175H152.32Z" fill="white"/>
<path d="M161.029 25.7175V26.3546H158.087V28.2659H160.683V28.903H158.087V30.9882H161.144V31.6253H157.395V25.7754H161.029V25.7175Z" fill="white"/>
<path d="M17.0141 13.7281C16.6104 13.7281 16.7258 13.2648 16.7258 13.0331C16.7258 9.96335 16.7258 6.95152 16.7834 3.88178C17.2448 3.47635 17.9946 4.05554 18.456 3.47635C18.3983 3.07091 18.3983 2.60755 18.3983 2.20212C18.5714 0.985803 18.11 0.638282 16.8988 0.696201C15.1109 0.812041 13.3806 0.696201 11.5927 0.696201C11.189 1.44916 11.4773 2.26004 11.4197 3.07091C11.362 3.59219 11.708 3.76595 12.1118 3.70803C13.1499 3.59219 13.2076 4.17138 13.0922 4.92434C13.0346 5.56145 13.2076 6.14065 12.9769 6.77777H6.17123C5.99821 5.79313 5.99821 4.86642 6.17123 3.88178C6.63263 3.47635 7.38241 4.05554 7.84381 3.53427C7.72846 0.754122 7.72846 0.754125 4.90238 0.754125H3.74888C0.92281 0.754125 0.92281 0.754121 0.980485 3.59218C1.38421 4.11346 2.53771 3.24467 2.53771 4.34514C2.48003 7.4728 2.76841 10.6005 2.42236 13.6702C1.26886 13.6702 0.749785 14.1336 0.980485 15.3499C1.03816 15.7553 1.03816 16.2187 0.980485 16.6241C3.28748 16.7979 5.59448 16.9716 7.90148 16.5662C7.90148 15.9291 7.84381 15.3499 7.84381 14.7128C7.84381 14.3073 7.72846 13.786 7.32473 13.844C5.88286 14.0177 6.17123 13.0331 6.17123 12.2222C6.17123 11.4113 6.22891 10.7163 6.22891 9.96335C7.44008 9.67375 8.65126 9.84751 9.92011 9.84751C13.5536 9.78959 13.5536 9.84751 13.2076 13.4385C13.2076 13.5544 13.1499 13.6123 13.0922 13.6702C12.6885 13.844 12.1694 13.844 11.7657 13.7281C11.2466 14.539 11.6504 15.4078 11.535 16.2187C11.4773 16.5662 11.7657 16.7399 12.0541 16.7399C14.1881 16.6241 16.3797 17.0295 18.5137 16.5083C18.5137 16.3924 18.5137 16.2187 18.456 16.1028C18.2253 15.1182 19.0328 13.6123 17.0141 13.7281Z" fill="#B12C2A"/>
<path d="M173.89 13.6702C173.544 13.6702 173.602 13.2069 173.602 12.9752C173.602 9.90545 173.659 6.89363 173.659 3.82389C174.121 3.41845 174.871 3.99765 175.332 3.41845C175.274 3.01302 175.274 2.54966 175.274 2.14422C175.447 0.927907 174.986 0.58039 173.775 0.63831C171.987 0.754149 170.257 0.63831 168.469 0.63831C168.065 1.39126 168.353 2.20214 168.296 3.01301C168.238 3.53429 168.584 3.70805 168.988 3.65013C170.026 3.53429 170.084 4.11349 169.968 4.86644C169.911 5.50356 170.084 6.08276 169.853 6.71987H162.99C162.816 5.73524 162.816 4.80852 162.99 3.82389C163.451 3.41845 164.201 3.99765 164.662 3.41845C164.547 0.638311 164.547 0.63831 161.721 0.63831H160.567C157.741 0.63831 157.741 0.63831 157.799 3.47637C158.202 3.99765 159.356 3.12886 159.356 4.22933C159.356 7.35699 159.587 10.4846 159.241 13.5544C158.087 13.5544 157.568 14.0177 157.799 15.2341C157.856 15.6395 157.856 16.1029 157.799 16.5083C160.106 16.682 162.413 16.8558 164.662 16.4504C164.662 15.8133 164.604 15.2341 164.604 14.5969C164.604 14.1915 164.547 13.6702 164.085 13.7281C162.643 13.9019 162.932 12.9173 162.932 12.1064C162.932 11.2955 162.99 10.6005 162.99 9.84753C164.201 9.55793 165.412 9.73169 166.681 9.73169C170.314 9.73169 170.314 9.73169 169.968 13.3227C169.968 13.4385 169.911 13.4965 169.853 13.5544C169.449 13.7281 168.93 13.7281 168.526 13.6123C168.007 14.4232 168.353 15.292 168.296 16.1029C168.238 16.4504 168.526 16.6241 168.815 16.6241C170.949 16.5083 173.14 16.9137 175.274 16.3925C175.274 16.2766 175.274 16.1029 175.217 15.987C175.101 15.0603 175.909 13.5544 173.89 13.6702Z" fill="#B12C2A"/>
<path d="M52.3689 1.27543C52.4842 0.406633 51.6768 0.754151 51.273 0.696231C49.6581 0.638312 48.0432 0.696231 46.4283 0.696231C46.486 1.85462 45.1595 3.41845 47.4665 3.82389C47.6972 3.88181 47.6395 4.22933 47.6395 4.461C47.6395 6.19859 47.6395 7.9941 47.6395 9.73169C47.6395 10.0213 47.5818 10.3109 47.1781 10.1951C45.5055 7.58867 43.833 5.0402 42.2181 2.43382C41.4683 1.21751 40.7185 0.522473 39.1036 0.638312C36.2775 0.812071 36.2775 0.696232 36.2775 3.53429C37.431 3.59221 37.6617 4.22933 37.6041 5.3298C37.4887 7.58866 37.5464 9.84753 37.5464 12.1064C37.6617 12.6856 37.4887 13.2648 37.1427 13.7281C36.5082 13.844 35.9892 13.9598 36.2199 14.8865C36.3352 15.4657 36.3352 16.0449 36.2775 16.6241C38.1231 17.0296 39.9687 16.682 41.7567 16.7979C42.1027 16.7979 42.4488 16.74 42.4488 16.2766C42.3911 15.4657 42.7371 14.5969 42.2181 13.7861C41.872 13.844 41.526 13.9598 41.1799 13.6702C40.8339 11.643 41.0646 9.67377 41.0646 7.64658C41.0646 7.4149 41.2376 7.35699 41.4683 7.41491L42.6218 9.1525C44.2944 11.701 45.9093 14.1915 47.5818 16.74C48.447 16.9137 49.3121 16.74 50.1195 16.7979C50.927 16.8558 51.1577 16.5083 51.1577 15.7553C51.1 13.6702 51.1 11.643 51.1577 9.61585C51.2154 7.76242 50.9847 5.909 51.273 4.05557C51.3884 3.93973 51.5614 3.82389 51.7344 3.70805C53.1763 3.2447 52.2535 2.0863 52.3689 1.27543Z" fill="#B12C2A"/>
<path d="M83.3403 8.05201C82.0138 8.10993 80.6296 8.05201 79.3031 8.05201C76.477 8.05201 76.477 8.05201 76.8807 10.948C76.8807 11.0059 76.9384 11.0638 76.9384 11.0638C77.3998 11.0059 77.9189 11.0059 78.3803 11.0638C78.784 11.1218 79.3031 10.7742 79.4761 11.3534C79.5915 11.7589 79.2454 12.1064 78.8994 12.396C78.0919 13.3227 76.7654 13.7281 75.5542 13.3227C74.0547 12.9173 72.9588 11.5851 72.8435 10.0213C72.6128 9.09456 72.6128 8.16785 72.8435 7.29905C72.8435 4.92435 76.1886 2.60757 78.5533 4.34516C79.0724 4.69267 79.2454 5.44563 79.8222 5.50355C80.8603 5.61939 82.0138 5.79315 82.9366 5.44563C83.571 5.21395 83.1096 4.05556 83.1673 3.3026C83.225 2.89716 83.225 2.54965 83.225 2.14421C82.4752 1.68085 81.5524 2.14421 80.8026 1.79669C75.4965 -1.85224 69.556 2.14421 69.0946 7.24114C68.9216 8.22577 68.9216 9.15248 69.0946 10.1371C69.6137 12.9173 70.8825 15.1761 73.6509 16.2766C76.4193 17.3771 78.8994 16.7979 80.9757 14.3073V16.4503C81.8985 16.9716 82.8213 16.6241 83.7441 16.682C84.3208 16.74 84.2631 16.2187 84.2631 15.8132C84.2631 13.4965 84.2631 11.1797 84.2631 8.86289C84.2631 8.16785 83.9171 8.05201 83.3403 8.05201Z" fill="#B12C2A"/>
<path d="M98.1051 0.696198C94.3563 0.754117 90.5497 0.696198 86.8008 0.696198C86.4548 1.27539 86.6855 1.91251 86.6278 2.49171C86.5701 3.30259 86.4548 4.17138 87.7813 3.99762C88.185 3.9397 88.3581 4.2293 88.3581 4.63474C88.3004 7.64656 88.5311 10.6584 88.2427 13.6123C87.839 13.786 87.3199 13.786 86.9162 13.6702C86.4548 14.1336 86.8008 14.7707 86.6855 15.2919C86.4548 16.4503 87.0315 16.7399 88.1274 16.682C90.9534 16.6241 93.7218 16.682 96.5479 16.6241C97.5284 16.6241 98.5089 16.7979 99.4893 16.4503V11.0059C98.3935 10.7163 97.1247 10.5425 96.1442 11.0059C95.4521 11.3534 96.0865 12.6276 95.7981 13.4385C95.7981 13.4964 95.7405 13.5544 95.7405 13.5544C94.76 13.6123 93.7218 13.6123 92.7414 13.6123C92.453 13.6123 92.0493 13.6702 91.9916 13.3806C91.9339 12.3381 91.7609 11.2376 92.0493 10.2529C92.2223 9.61582 93.2604 9.96335 93.8949 10.0213C95.4521 10.1371 95.0484 9.09455 95.106 8.22575C95.1637 7.35696 95.0484 6.83568 93.8949 6.8936C91.8762 6.95152 91.8762 6.8936 91.9339 4.86642C91.9339 4.57682 91.9916 4.28722 91.9916 3.99762C93.2028 3.6501 94.4716 3.70802 95.6251 4.05554C96.2019 4.28722 95.5674 5.38769 95.9712 6.02481C96.7786 6.02481 97.5861 5.96689 98.3935 6.02481C99.201 6.08273 99.4317 5.85105 99.374 5.09809C99.3163 3.99762 99.3163 2.89715 99.374 1.79667C99.4893 0.869957 99.0279 0.696198 98.1051 0.696198Z" fill="#B12C2A"/>
<path d="M151.57 12.1064C149.724 14.3652 146.725 14.1915 145.226 11.5851C144.36 10.1371 144.187 8.3416 144.822 6.71985C145.975 3.53427 149.032 2.78132 151.512 5.15602C152.031 5.61938 154.915 5.85106 154.973 5.3877C155.146 4.40307 155.146 3.36051 154.973 2.37588C154.857 1.68084 153.992 2.1442 153.473 2.08628C153.069 2.08628 152.723 1.97044 152.377 1.73876C150.878 0.40661 149.09 0.290772 147.244 0.464531C146.956 0.464531 146.61 0.580367 146.379 0.696206C143.265 1.97044 141.534 4.40306 140.9 7.64656C140.9 7.70448 140.9 7.87824 140.9 7.93616C140.9 10.3109 141.419 12.5118 142.976 14.3652C146.264 18.2459 152.666 17.7246 154.973 13.3806C155.146 13.0331 155.549 12.6277 155.261 12.1643C154.742 11.5272 152.089 11.4693 151.57 12.1064Z" fill="#B12C2A"/>
<path d="M191.02 4.1714C191.02 3.30261 191.02 2.43381 191.02 1.56502C191.02 0.290787 189.866 0.754145 189.232 0.638306C186.233 0.638306 183.176 0.696224 180.177 0.696224C176.428 0.696224 176.485 0.696225 176.485 4.40308C176.485 5.38771 176.774 5.67731 177.697 5.56147C178.1 5.50355 178.446 5.50355 178.85 5.56147C179.6 5.61939 180.061 5.44564 179.946 4.57684C179.831 3.76597 180.061 3.47637 180.926 3.47637C181.907 3.47637 181.849 4.05556 181.792 4.69268C181.792 7.35698 181.792 9.96337 181.792 12.6277C181.792 13.3227 181.792 13.7281 180.869 13.844C179.6 13.9598 180.407 15.1182 180.234 15.8132C180.061 16.5083 180.407 16.74 181.099 16.682C182.599 16.6241 184.156 16.682 185.713 16.682C186.233 16.682 187.155 16.9716 186.925 15.9291C186.752 15.1761 187.732 13.844 185.944 13.844C185.54 13.844 185.31 13.7281 185.31 13.2648C185.31 10.253 185.31 7.18322 185.31 4.1714C185.31 3.30261 186.059 3.65012 186.521 3.59221C186.982 3.53429 187.674 3.36053 187.501 4.1714C187.213 5.79315 188.251 5.67731 189.232 5.67731C189.405 5.67731 189.635 5.67731 189.808 5.67731C190.385 5.6194 191.135 5.73523 191.02 4.7506C191.077 4.57684 191.077 4.34516 191.02 4.1714Z" fill="#B12C2A"/>
<path d="M123.194 13.7281L122.156 13.6702C122.04 10.8321 122.098 7.93615 122.04 5.09809C122.04 4.40306 121.81 3.59218 123.021 3.70802C123.367 3.76594 123.482 3.41842 123.482 3.12882C123.424 2.31795 123.655 1.50708 123.309 0.754122C121.348 0.754122 119.387 0.812042 117.484 0.754122C116.907 0.638283 116.446 1.04372 116.33 1.56499C115.754 3.24466 115.119 4.86641 114.485 6.48816C113.966 7.76239 113.504 9.03662 113.043 10.3109C112.928 10.7163 112.985 11.2376 112.466 11.3534C111.832 11.4692 111.774 10.7742 111.601 10.3688C110.736 8.28366 109.871 6.19856 109.006 4.11346C108.544 3.01298 108.429 1.56499 107.622 0.927878C106.699 0.232843 105.257 0.754119 103.988 0.696199C101.162 0.638279 101.162 0.6962 101.162 3.53426C101.566 3.9397 102.142 3.47634 102.546 3.88178C102.604 6.95151 102.604 10.0213 102.661 13.091C102.661 13.5544 102.604 13.9019 102.085 13.786C101.22 13.6702 101.162 14.1915 101.22 14.8286C101.277 15.4657 101.22 15.987 101.22 16.5662C103.238 16.8558 105.257 16.8558 107.275 16.5662C106.929 15.5815 108.083 14.0177 106.18 13.6123C106.122 13.6123 106.122 13.3806 106.122 13.2068V5.96689C107.737 9.15246 109.121 12.338 110.448 15.5815C110.678 16.1607 110.736 16.7399 111.486 16.5082C112.409 16.2766 113.62 17.1454 114.196 15.6974C115.177 13.2068 116.157 10.6584 117.08 8.16783C117.542 7.35695 117.657 6.25648 118.58 5.44561C118.58 8.10991 118.58 10.5425 118.58 12.9752C118.58 13.6123 118.349 13.844 117.715 13.6702C117.253 14.2494 117.599 14.9444 117.484 15.5815C117.369 16.3345 117.599 16.7399 118.522 16.682C119.906 16.6241 121.291 16.682 122.675 16.682C123.078 16.682 123.54 16.7399 123.54 16.1607C123.367 15.4078 123.713 14.539 123.194 13.7281Z" fill="#B12C2A"/>
<path d="M61.3662 0.927877C58.8862 0.52244 56.4062 0.869956 53.9261 0.696198C53.5801 1.21747 53.8685 1.79667 53.7531 2.37587C53.5224 3.47634 54.0992 3.76594 55.022 3.88178C55.022 6.8936 55.022 9.96333 55.1373 12.9752C55.1373 13.9019 54.6182 13.8439 54.0415 13.7281C53.5224 14.539 53.8685 15.4078 53.8108 16.2187C53.7531 16.682 54.1568 16.7399 54.5029 16.7399C56.8099 16.682 59.1169 16.8558 61.4239 16.6241C62.1737 16.5083 62.8658 16.2187 63.5002 15.8132C66.3839 14.2494 68.1142 11.0638 67.7681 7.76239C67.249 4.34514 64.4807 1.44915 61.3662 0.927877ZM63.7886 10.3109C63.0965 12.6856 61.4816 13.9019 59.3476 13.786C58.7132 13.7281 58.4825 13.5543 58.5401 12.9752C58.5978 11.5272 58.5401 10.0792 58.5401 8.68911C58.5401 7.35695 58.5978 6.0248 58.5401 4.63473C58.4825 3.76594 58.8285 3.59218 59.636 3.59218C62.6927 3.6501 64.769 6.95152 63.7886 10.3109Z" fill="#B12C2A"/>
<path d="M138.939 13.6702C138.824 13.6702 138.651 13.3227 138.593 13.091C138.305 12.1643 137.728 10.0792 137.67 9.96337C136.92 7.82034 136.228 5.73523 135.479 3.59221C134.498 0.638305 134.498 0.696225 131.441 0.638306C130.345 0.638306 129.942 1.10166 129.711 1.97046C128.558 5.56148 127.404 9.15249 126.308 12.7435C126.193 13.1489 126.077 13.6702 125.558 13.6702C124.693 13.6702 124.809 14.1336 124.809 14.7128C124.809 15.292 124.751 15.8712 124.751 16.4504C126.597 16.9716 128.5 16.5662 130.345 16.6821C130.576 16.74 130.807 16.5662 130.865 16.3345C130.865 16.2766 130.865 16.2187 130.865 16.1608C130.807 15.3499 131.153 14.4811 130.634 13.6702C130.172 13.5544 129.25 14.1915 129.365 13.2069C129.423 12.5118 129.307 11.3534 130.692 11.4114C131.845 11.4693 132.999 11.4114 134.152 11.4114C135.306 11.4114 135.017 12.5118 135.248 13.1489C135.536 13.9019 134.786 13.5544 134.44 13.6702C133.345 14.0757 134.094 15.0603 133.864 15.7553C133.748 16.2187 133.864 16.5662 134.498 16.5662C136.055 16.5083 137.67 16.5662 139.227 16.5662C139.631 16.5662 139.977 16.4504 139.862 15.987C139.746 15.292 140.785 13.9019 138.939 13.6702ZM130.807 8.74706L132.364 3.65013C132.941 5.56148 133.46 7.06739 133.979 8.74706H130.807Z" fill="#B12C2A"/>
<path d="M34.1436 13.6702C34.0283 13.6702 33.8552 13.3227 33.7976 13.091C33.5092 12.1643 32.9324 10.0792 32.8748 9.96337C32.125 7.82034 31.3752 5.73523 30.6831 3.59221C29.7026 0.638305 29.7026 0.696225 26.6459 0.638306C25.55 0.638306 25.1463 1.10166 24.9156 1.97046C23.7621 5.56148 22.6086 9.15249 21.5128 12.7435C21.3974 13.1489 21.2821 13.6702 20.763 13.6702C19.9556 13.6702 20.0132 14.1336 20.0132 14.7128C20.0132 15.292 19.9556 15.8712 19.9556 16.4504C21.8012 16.9716 23.7044 16.5662 25.55 16.6821C25.7807 16.74 26.0114 16.5662 26.0691 16.3345C26.0691 16.2766 26.0691 16.2187 26.0691 16.1608C26.0114 15.3499 26.3575 14.4811 25.8384 13.6702C25.377 13.5544 24.4542 14.1915 24.5696 13.2069C24.6272 12.5118 24.5119 11.3534 25.8961 11.4114C27.0496 11.4693 28.2031 11.4114 29.3566 11.4114C30.5101 11.4114 30.2217 12.5118 30.4524 13.1489C30.7408 13.9019 29.991 13.5544 29.645 13.7281C28.5491 14.1336 29.2989 15.1182 29.0682 15.8133C28.9529 16.2766 29.0682 16.6241 29.7026 16.6241C31.2599 16.5662 32.8748 16.6241 34.432 16.6241C34.8357 16.6241 35.1818 16.5083 35.0664 16.0449C34.9511 15.2341 35.9892 13.844 34.1436 13.6702ZM26.0114 8.68914C26.4728 7.12531 26.9342 5.56147 27.5687 3.59221C28.1454 5.50355 28.6645 7.00947 29.1836 8.68914H26.0114Z" fill="#B12C2A"/>
</svg>
