<svg width="60" height="60" viewBox="0 0 60 60" fill="none" xmlns="http://www.w3.org/2000/svg">
<g clip-path="url(#clip0)">
<path d="M43.2519 60H16.7481C7.51167 60 0 52.4883 0 43.2519V16.7481C0 7.51167 7.51167 0 16.7481 0H43.256C52.4883 0 60.0041 7.51167 60.0041 16.7481V43.256C60 52.4883 52.4883 60 43.2519 60ZM16.7481 5.24721C10.4092 5.24721 5.25127 10.4051 5.25127 16.744V43.2519C5.25127 49.5908 10.4092 54.7487 16.7481 54.7487H43.256C49.5949 54.7487 54.7528 49.5908 54.7528 43.2519V16.7481C54.7528 10.4092 49.5949 5.25127 43.256 5.25127H16.7481V5.24721Z" fill="black"/>
<path d="M29.998 47.1398C21.1228 47.1398 13.8992 39.9163 13.8992 31.0411C13.8992 22.1619 21.1228 14.9424 29.998 14.9424C38.8732 14.9424 46.0968 22.1659 46.0968 31.0411C46.1008 39.9163 38.8773 47.1398 29.998 47.1398ZM29.998 20.1896C24.0162 20.1896 19.1464 25.0553 19.1464 31.0411C19.1464 37.0228 24.0122 41.8926 29.998 41.8926C35.9838 41.8926 40.8495 37.0269 40.8495 31.0411C40.8495 25.0553 35.9838 20.1896 29.998 20.1896Z" fill="black"/>
<path d="M44.9036 17.9249C46.7415 17.9249 48.2313 16.4351 48.2313 14.5972C48.2313 12.7594 46.7415 11.2695 44.9036 11.2695C43.0658 11.2695 41.5759 12.7594 41.5759 14.5972C41.5759 16.4351 43.0658 17.9249 44.9036 17.9249Z" fill="black"/>
</g>
<defs>
<clipPath id="clip0">
<rect width="60" height="60" fill="white"/>
</clipPath>
</defs>
</svg>
