<?xml version="1.0" encoding="UTF-8" standalone="no"?><!DOCTYPE svg PUBLIC "-//W3C//DTD SVG 1.1//EN" "http://www.w3.org/Graphics/SVG/1.1/DTD/svg11.dtd"><svg width="100%" height="100%" viewBox="0 0 437 437" version="1.1" xmlns="http://www.w3.org/2000/svg" xmlns:xlink="http://www.w3.org/1999/xlink" xml:space="preserve" xmlns:serif="http://www.serif.com/" style="fill-rule:evenodd;clip-rule:evenodd;stroke-miterlimit:10;"><path d="M269.708,59.792c-3.125,17.375 -8.25,34.625 -14.916,51.041c-7.542,18.375 -4.084,39.209 9.208,53.709l17.083,18.625c-26.75,39.416 -61.958,71.708 -103.125,94.583l-17.083,-18.625c-13.292,-14.5 -33.75,-19.75 -52.708,-13.792c-16.959,5.625 -34.584,9.25 -52.167,10.459c-25.542,2.458 -45.125,23.5 -45.833,48.916l-2.5,57.959c-0.084,1.583 -0.125,3.166 0.208,4.375c1.167,27.875 24.5,49.583 52.375,48.416l0.417,0c61.833,-4.083 121.458,-22.583 174.916,-53.666c49.334,-28.5 91.625,-67.625 124.25,-114.334c35.584,-50.541 59.167,-108.416 68.542,-169.25c0.083,-1.583 0.125,-3.166 0.208,-4.75c1.209,-27.833 -20.416,-51.416 -48.208,-52.625l-57.958,-2.5c-25.375,-1.875 -48.042,16.209 -52.709,41.459Zm51.667,-17.625l57.958,2.5c14.667,0.625 26.084,13.041 25.459,27.75l-0,0.416l-0.084,2.375c-8.875,56.875 -31.083,111.167 -64.541,158.25c-30.542,44 -70.292,80.459 -116.792,107.5c-49.792,29.25 -106.208,46.709 -164.042,50.167c-14.75,0.542 -26.958,-10.708 -27.958,-25.083l0.083,-2.375l2.542,-58.334c0.583,-13.083 10.583,-23.791 23.75,-25.208c19.542,-1.542 38.833,-5.5 57.375,-11.833c9.667,-3.167 20.708,-0.292 27.542,7.166l23.958,25.292c3.792,4.125 9.708,5.208 14.208,2.583c51.25,-26.416 94.75,-66.291 125.459,-115.083c3,-4.625 2.458,-10.625 -1.375,-14.375l-23.542,-25.667c-6.833,-7.833 -8.75,-18.666 -4.75,-28.041c7.542,-17.959 13.125,-36.834 16.75,-56.167c2.208,-13.417 14.125,-22.833 28,-21.833Z" style="fill:#fff;fill-rule:nonzero;stroke:#fff;stroke-width:8.33px;"/></svg>