<svg width="375" height="15" viewBox="0 0 375 15" fill="none" xmlns="http://www.w3.org/2000/svg">
<line x1="1.06066" y1="1.93934" x2="13.0607" y2="13.9393" stroke="black" stroke-width="3"/>
<line x1="13.0607" y1="1.93934" x2="25.0607" y2="13.9393" stroke="black" stroke-width="3"/>
<line x1="25.0607" y1="1.93934" x2="37.0607" y2="13.9393" stroke="black" stroke-width="3"/>
<line x1="37.0607" y1="1.93934" x2="49.0607" y2="13.9393" stroke="black" stroke-width="3"/>
<line x1="49.0607" y1="1.93934" x2="61.0607" y2="13.9393" stroke="black" stroke-width="3"/>
<line x1="61.0607" y1="1.93934" x2="73.0607" y2="13.9393" stroke="black" stroke-width="3"/>
<line x1="73.0607" y1="1.93934" x2="85.0607" y2="13.9393" stroke="black" stroke-width="3"/>
<line x1="85.0607" y1="1.93934" x2="97.0607" y2="13.9393" stroke="black" stroke-width="3"/>
<line x1="97.0607" y1="1.93934" x2="109.061" y2="13.9393" stroke="black" stroke-width="3"/>
<line x1="109.061" y1="1.93934" x2="121.061" y2="13.9393" stroke="black" stroke-width="3"/>
<line x1="121.061" y1="1.93934" x2="133.061" y2="13.9393" stroke="black" stroke-width="3"/>
<line x1="133.061" y1="1.93934" x2="145.061" y2="13.9393" stroke="black" stroke-width="3"/>
<line x1="145.061" y1="1.93934" x2="157.061" y2="13.9393" stroke="black" stroke-width="3"/>
<line x1="157.061" y1="1.93934" x2="169.061" y2="13.9393" stroke="black" stroke-width="3"/>
<line x1="169.061" y1="1.93934" x2="181.061" y2="13.9393" stroke="black" stroke-width="3"/>
<line x1="181.061" y1="1.93934" x2="193.061" y2="13.9393" stroke="black" stroke-width="3"/>
<line x1="193.061" y1="1.93934" x2="205.061" y2="13.9393" stroke="black" stroke-width="3"/>
<line x1="205.061" y1="1.93934" x2="217.061" y2="13.9393" stroke="black" stroke-width="3"/>
<line x1="217.061" y1="1.93934" x2="229.061" y2="13.9393" stroke="black" stroke-width="3"/>
<line x1="229.061" y1="1.93934" x2="241.061" y2="13.9393" stroke="black" stroke-width="3"/>
<line x1="241.061" y1="1.93934" x2="253.061" y2="13.9393" stroke="black" stroke-width="3"/>
<line x1="253.061" y1="1.93934" x2="265.061" y2="13.9393" stroke="black" stroke-width="3"/>
<line x1="265.061" y1="1.93934" x2="277.061" y2="13.9393" stroke="black" stroke-width="3"/>
<line x1="277.061" y1="1.93934" x2="289.061" y2="13.9393" stroke="black" stroke-width="3"/>
<line x1="289.061" y1="1.93934" x2="301.061" y2="13.9393" stroke="black" stroke-width="3"/>
<line x1="301.061" y1="1.93934" x2="313.061" y2="13.9393" stroke="black" stroke-width="3"/>
<line x1="313.061" y1="1.93934" x2="325.061" y2="13.9393" stroke="black" stroke-width="3"/>
<line x1="325.061" y1="1.93934" x2="337.061" y2="13.9393" stroke="black" stroke-width="3"/>
<line x1="337.061" y1="1.93934" x2="349.061" y2="13.9393" stroke="black" stroke-width="3"/>
<line x1="349.061" y1="1.93934" x2="361.061" y2="13.9393" stroke="black" stroke-width="3"/>
<line x1="361.061" y1="1.93934" x2="373.061" y2="13.9393" stroke="black" stroke-width="3"/>
</svg>
