<svg width="375" height="15" viewBox="0 0 375 15" fill="none" xmlns="http://www.w3.org/2000/svg">
<line y1="-1.5" x2="16.9706" y2="-1.5" transform="matrix(-0.707107 0.707107 0.707107 0.707107 375 3)" stroke="black" stroke-width="3"/>
<line y1="-1.5" x2="16.9706" y2="-1.5" transform="matrix(-0.707107 0.707107 0.707107 0.707107 363 3)" stroke="black" stroke-width="3"/>
<line y1="-1.5" x2="16.9706" y2="-1.5" transform="matrix(-0.707107 0.707107 0.707107 0.707107 351 3)" stroke="black" stroke-width="3"/>
<line y1="-1.5" x2="16.9706" y2="-1.5" transform="matrix(-0.707107 0.707107 0.707107 0.707107 339 3)" stroke="black" stroke-width="3"/>
<line y1="-1.5" x2="16.9706" y2="-1.5" transform="matrix(-0.707107 0.707107 0.707107 0.707107 327 3)" stroke="black" stroke-width="3"/>
<line y1="-1.5" x2="16.9706" y2="-1.5" transform="matrix(-0.707107 0.707107 0.707107 0.707107 315 3)" stroke="black" stroke-width="3"/>
<line y1="-1.5" x2="16.9706" y2="-1.5" transform="matrix(-0.707107 0.707107 0.707107 0.707107 303 3)" stroke="black" stroke-width="3"/>
<line y1="-1.5" x2="16.9706" y2="-1.5" transform="matrix(-0.707107 0.707107 0.707107 0.707107 291 3)" stroke="black" stroke-width="3"/>
<line y1="-1.5" x2="16.9706" y2="-1.5" transform="matrix(-0.707107 0.707107 0.707107 0.707107 279 3)" stroke="black" stroke-width="3"/>
<line y1="-1.5" x2="16.9706" y2="-1.5" transform="matrix(-0.707107 0.707107 0.707107 0.707107 267 3)" stroke="black" stroke-width="3"/>
<line y1="-1.5" x2="16.9706" y2="-1.5" transform="matrix(-0.707107 0.707107 0.707107 0.707107 255 3)" stroke="black" stroke-width="3"/>
<line y1="-1.5" x2="16.9706" y2="-1.5" transform="matrix(-0.707107 0.707107 0.707107 0.707107 243 3)" stroke="black" stroke-width="3"/>
<line y1="-1.5" x2="16.9706" y2="-1.5" transform="matrix(-0.707107 0.707107 0.707107 0.707107 231 3)" stroke="black" stroke-width="3"/>
<line y1="-1.5" x2="16.9706" y2="-1.5" transform="matrix(-0.707107 0.707107 0.707107 0.707107 219 3)" stroke="black" stroke-width="3"/>
<line y1="-1.5" x2="16.9706" y2="-1.5" transform="matrix(-0.707107 0.707107 0.707107 0.707107 207 3)" stroke="black" stroke-width="3"/>
<line y1="-1.5" x2="16.9706" y2="-1.5" transform="matrix(-0.707107 0.707107 0.707107 0.707107 195 3)" stroke="black" stroke-width="3"/>
<line y1="-1.5" x2="16.9706" y2="-1.5" transform="matrix(-0.707107 0.707107 0.707107 0.707107 183 3)" stroke="black" stroke-width="3"/>
<line y1="-1.5" x2="16.9706" y2="-1.5" transform="matrix(-0.707107 0.707107 0.707107 0.707107 171 3)" stroke="black" stroke-width="3"/>
<line y1="-1.5" x2="16.9706" y2="-1.5" transform="matrix(-0.707107 0.707107 0.707107 0.707107 159 3)" stroke="black" stroke-width="3"/>
<line y1="-1.5" x2="16.9706" y2="-1.5" transform="matrix(-0.707107 0.707107 0.707107 0.707107 147 3)" stroke="black" stroke-width="3"/>
<line y1="-1.5" x2="16.9706" y2="-1.5" transform="matrix(-0.707107 0.707107 0.707107 0.707107 135 3)" stroke="black" stroke-width="3"/>
<line y1="-1.5" x2="16.9706" y2="-1.5" transform="matrix(-0.707107 0.707107 0.707107 0.707107 123 3)" stroke="black" stroke-width="3"/>
<line y1="-1.5" x2="16.9706" y2="-1.5" transform="matrix(-0.707107 0.707107 0.707107 0.707107 111 3)" stroke="black" stroke-width="3"/>
<line y1="-1.5" x2="16.9706" y2="-1.5" transform="matrix(-0.707107 0.707107 0.707107 0.707107 99 3)" stroke="black" stroke-width="3"/>
<line y1="-1.5" x2="16.9706" y2="-1.5" transform="matrix(-0.707107 0.707107 0.707107 0.707107 87 3)" stroke="black" stroke-width="3"/>
<line y1="-1.5" x2="16.9706" y2="-1.5" transform="matrix(-0.707107 0.707107 0.707107 0.707107 75 3)" stroke="black" stroke-width="3"/>
<line y1="-1.5" x2="16.9706" y2="-1.5" transform="matrix(-0.707107 0.707107 0.707107 0.707107 63 3)" stroke="black" stroke-width="3"/>
<line y1="-1.5" x2="16.9706" y2="-1.5" transform="matrix(-0.707107 0.707107 0.707107 0.707107 51 3)" stroke="black" stroke-width="3"/>
<line y1="-1.5" x2="16.9706" y2="-1.5" transform="matrix(-0.707107 0.707107 0.707107 0.707107 39 3)" stroke="black" stroke-width="3"/>
<line y1="-1.5" x2="16.9706" y2="-1.5" transform="matrix(-0.707107 0.707107 0.707107 0.707107 27 3)" stroke="black" stroke-width="3"/>
<line y1="-1.5" x2="16.9706" y2="-1.5" transform="matrix(-0.707107 0.707107 0.707107 0.707107 15 3)" stroke="black" stroke-width="3"/>
</svg>
